<?xml version="1.0" encoding="utf-8"?>
<!-- Generator: Adobe Illustrator 25.0.1, SVG Export Plug-In . SVG Version: 6.00 Build 0)  -->
<svg version="1.1" id="Layer_1" xmlns="http://www.w3.org/2000/svg" xmlns:xlink="http://www.w3.org/1999/xlink" x="0px" y="0px"
	 viewBox="0 0 42.7 42.7" style="enable-background:new 0 0 42.7 42.7;" xml:space="preserve">
<style type="text/css">
	.st0{fill:#C4C4C4;}
</style>
<circle class="st0" cx="21.4" cy="21.4" r="21.4"/>
<path d="M17.6,24c1.3-0.1,2.1-3.4,1.7-7.3c-0.4-3.9-1.8-7-3.1-6.8c-1.3,0.1-2.1,3.4-1.7,7.3C14.9,21.1,16.3,24.1,17.6,24z M8.4,27
	c0.1,0,0.1,0,0.2,0c0.5,0,0.8-0.4,0.8-0.9c0-0.2,0.1-0.7,0.1-0.9c1.4,2.6,5.5,9.2,12.6,8.5c0.7-0.1,1.5-0.2,2.3-0.4
	c3.1-0.9,5.3-2.7,6.4-5.4c1-2.2,1.1-4.8,0.4-7.4c-1.3-4.7-4.4-6.7-7.1-6.4c0.2-1.9,0.9-3.2,1-3.4c0.2-0.5,0.1-1-0.4-1.3
	c-0.5-0.3-1.1-0.1-1.3,0.4c-0.1,0.1-3.7,7,1.7,13.4c0.2,0.2,0.5,0.4,0.8,0.3c0.2,0,0.4-0.1,0.5-0.2c0.4-0.3,0.4-1,0.1-1.4
	c-1.7-2-2.4-4.1-2.5-5.9c2.4-0.5,4.5,2.2,5.3,5c1.6,6-2,9.3-5.6,10.4c-8.4,2.5-12.6-6.3-13.1-7.6c0.2-0.1,0.4-0.2,0.4-0.2
	c0.5-0.2,0.8-0.7,0.6-1.2c-0.2-0.5-0.7-0.8-1.2-0.6c-0.1,0-2.9,1-3.1,4.2C7.5,26.5,7.9,26.9,8.4,27L8.4,27z"/>
</svg>
